# Blender v2.81 (sub 16) OBJ File: 'shipedge.blend'
# www.blender.org
mtllib shipedge.mtl
o Cube
v -0.121362 0.013698 0.604753
v -0.216008 0.013698 -0.262054
v -0.120852 0.013698 -0.565889
v -0.182620 0.013698 -0.420649
v -0.211000 0.013698 -0.075079
v -0.070769 0.013698 -0.634335
v -0.070769 -0.007718 -0.634335
v -0.211000 -0.007718 -0.075079
v -0.182620 -0.007718 -0.420649
v -0.120852 -0.007718 -0.565889
v -0.216008 -0.007718 -0.262054
v -0.121362 -0.007718 0.604753
v 0.121362 0.013698 0.604753
v 0.216008 0.013698 -0.262054
v 0.120852 0.013698 -0.565889
v 0.182620 0.013698 -0.420649
v 0.211000 0.013698 -0.075079
v 0.070769 0.013698 -0.634335
v 0.000000 0.013698 0.607277
v 0.000000 0.013698 -0.702771
v 0.000000 -0.007718 -0.702771
v 0.000000 -0.007718 0.607277
v 0.070769 -0.007718 -0.634335
v 0.211000 -0.007718 -0.075079
v 0.182620 -0.007718 -0.420649
v 0.120852 -0.007718 -0.565889
v 0.216008 -0.007718 -0.262054
v 0.121362 -0.007718 0.604753
vt 0.707142 0.833318
vt 0.697971 0.791498
vt 0.697971 0.791498
vt 0.721052 0.562316
vt 0.753131 0.561380
vt 0.753131 0.561380
vt 0.723780 0.871547
vt 0.707142 0.833318
vt 0.755937 0.907438
vt 0.737162 0.889516
vt 0.737162 0.889516
vt 0.723780 0.871547
vt 0.698879 0.742096
vt 0.698879 0.742096
vt 0.721052 0.562316
vt 0.697971 0.791498
vt 0.707142 0.833318
vt 0.697971 0.791498
vt 0.721052 0.562316
vt 0.707142 0.833318
vt 0.723780 0.871547
vt 0.737162 0.889516
vt 0.737162 0.889516
vt 0.723780 0.871547
vt 0.698879 0.742096
vt 0.698879 0.742096
vt 0.721052 0.562316
vt 0.755937 0.907438
vn 0.9785 0.0000 0.2060
vn 0.0208 0.0000 -0.9998
vn 0.9202 0.0000 0.3914
vn 0.6952 0.0000 0.7189
vn 0.8070 0.0000 0.5905
vn 0.9996 0.0000 -0.0268
vn 0.9914 0.0000 -0.1307
vn -0.9785 0.0000 0.2060
vn -0.0208 0.0000 -0.9998
vn -0.9202 0.0000 0.3914
vn -0.6952 0.0000 0.7189
vn -0.8070 0.0000 0.5905
vn -0.9996 0.0000 -0.0268
vn -0.9914 0.0000 -0.1307
usemtl Material
s off
f 9/1/1 2/2/1 11/3/1
f 12/4/2 19/5/2 22/6/2
f 10/7/3 4/8/3 9/1/3
f 21/9/4 6/10/4 7/11/4
f 7/11/5 3/12/5 10/7/5
f 11/3/6 5/13/6 8/14/6
f 8/14/7 1/15/7 12/4/7
f 14/16/8 25/17/8 27/18/8
f 19/5/9 28/19/9 22/6/9
f 16/20/10 26/21/10 25/17/10
f 18/22/11 21/9/11 23/23/11
f 15/24/12 23/23/12 26/21/12
f 17/25/13 27/18/13 24/26/13
f 13/27/14 24/26/14 28/19/14
f 9/1/1 4/8/1 2/2/1
f 12/4/2 1/15/2 19/5/2
f 10/7/3 3/12/3 4/8/3
f 21/9/4 20/28/4 6/10/4
f 7/11/5 6/10/5 3/12/5
f 11/3/6 2/2/6 5/13/6
f 8/14/7 5/13/7 1/15/7
f 14/16/8 16/20/8 25/17/8
f 19/5/9 13/27/9 28/19/9
f 16/20/10 15/24/10 26/21/10
f 18/22/11 20/28/11 21/9/11
f 15/24/12 18/22/12 23/23/12
f 17/25/13 14/16/13 27/18/13
f 13/27/14 17/25/14 24/26/14
